<svg width="1402" height="2232" viewBox="0 0 1402 2232" fill="none"
    xmlns="http://www.w3.org/2000/svg">
    <rect width="1401.08" height="2232" fill="#DDE2E9" />
    <path
        d="M539 1072.75C539 1030.04 539 1008.68 547.444 992.427C554.56 978.729 565.729 967.56 579.427 960.444C595.682 952 617.038 952 659.75 952H743.25C785.962 952 807.318 952 823.573 960.444C837.271 967.56 848.44 978.729 855.556 992.427C864 1008.68 864 1030.04 864 1072.75V1156.25C864 1198.96 864 1220.32 855.556 1236.57C848.44 1250.27 837.271 1261.44 823.573 1268.56C807.318 1277 785.962 1277 743.25 1277H659.75C617.038 1277 595.682 1277 579.427 1268.56C565.729 1261.44 554.56 1250.27 547.444 1236.57C539 1220.32 539 1198.96 539 1156.25V1072.75Z"
        fill="#010101" />
    <path
        d="M740.131 1064.18L701.386 1102.92L662.111 1064.18L701.386 1024.9L740.131 1064.18ZM790.02 1114.06L751.276 1153.34L712.532 1114.06L751.276 1075.32L790.02 1114.06ZM690.241 1114.06L650.966 1153.34L611.691 1114.06L650.966 1075.32L690.241 1114.06ZM740.131 1164.49L701.386 1203.23L662.111 1164.49L701.386 1125.21L740.131 1164.49Z"
        fill="white" />
</svg>